TITLE ""
FILE "1Q_t_0601-0609.mp3" MP3
  TRACK 01 AUDIO
    TITLE "1Q_t_0601-0609_01"
    INDEX 01 00:00:00
  TRACK 02 AUDIO
    TITLE "1Q_t_0601-0609_02"
    INDEX 01 00:01:37
  TRACK 03 AUDIO
    TITLE "1Q_t_0601-0609_03"
    INDEX 01 00:02:07
  TRACK 04 AUDIO
    TITLE "1Q_t_0601-0609_04"
    INDEX 01 00:03:11
  TRACK 05 AUDIO
    TITLE "1Q_t_0601-0609_05"
    INDEX 01 00:03:58
  TRACK 06 AUDIO
    TITLE "1Q_t_0601-0609_06"
    INDEX 01 00:04:67
  TRACK 07 AUDIO
    TITLE "1Q_t_0601-0609_07"
    INDEX 01 00:05:00
  TRACK 08 AUDIO
    TITLE "1Q_t_0601-0609_08"
    INDEX 01 00:08:22
  TRACK 09 AUDIO
    TITLE "1Q_t_0601-0609_09"
    INDEX 01 00:08:29
  TRACK 10 AUDIO
    TITLE "1Q_t_0601-0609_10"
    INDEX 01 00:14:38
  TRACK 11 AUDIO
    TITLE "1Q_t_0601-0609_11"
    INDEX 01 00:15:10
  TRACK 12 AUDIO
    TITLE "1Q_t_0601-0609_12"
    INDEX 01 00:16:21
  TRACK 13 AUDIO
    TITLE "1Q_t_0601-0609_13"
    INDEX 01 00:16:29
  TRACK 14 AUDIO
    TITLE "1Q_t_0601-0609_14"
    INDEX 01 00:20:01
  TRACK 15 AUDIO
    TITLE "1Q_t_0601-0609_15"
    INDEX 01 00:20:07
  TRACK 16 AUDIO
    TITLE "1Q_t_0601-0609_16"
    INDEX 01 00:26:49
  TRACK 17 AUDIO
    TITLE "1Q_t_0601-0609_17"
    INDEX 01 00:27:19
  TRACK 18 AUDIO
    TITLE "1Q_t_0601-0609_18"
    INDEX 01 00:28:38
  TRACK 19 AUDIO
    TITLE "1Q_t_0601-0609_19"
    INDEX 01 00:28:48
  TRACK 20 AUDIO
    TITLE "1Q_t_0601-0609_20"
    INDEX 01 00:33:10
  TRACK 21 AUDIO
    TITLE "1Q_t_0601-0609_21"
    INDEX 01 00:33:18
  TRACK 22 AUDIO
    TITLE "1Q_t_0601-0609_22"
    INDEX 01 00:38:40
  TRACK 23 AUDIO
    TITLE "1Q_t_0601-0609_23"
    INDEX 01 00:39:10
  TRACK 24 AUDIO
    TITLE "1Q_t_0601-0609_24"
    INDEX 01 00:40:12
  TRACK 25 AUDIO
    TITLE "1Q_t_0601-0609_25"
    INDEX 01 00:40:20
  TRACK 26 AUDIO
    TITLE "1Q_t_0601-0609_26"
    INDEX 01 00:43:59
  TRACK 27 AUDIO
    TITLE "1Q_t_0601-0609_27"
    INDEX 01 00:43:67
  TRACK 28 AUDIO
    TITLE "1Q_t_0601-0609_28"
    INDEX 01 00:48:50
  TRACK 29 AUDIO
    TITLE "1Q_t_0601-0609_29"
    INDEX 01 00:49:22
  TRACK 30 AUDIO
    TITLE "1Q_t_0601-0609_30"
    INDEX 01 00:50:38
  TRACK 31 AUDIO
    TITLE "1Q_t_0601-0609_31"
    INDEX 01 00:50:47
  TRACK 32 AUDIO
    TITLE "1Q_t_0601-0609_32"
    INDEX 01 00:53:57
  TRACK 33 AUDIO
    TITLE "1Q_t_0601-0609_33"
    INDEX 01 00:53:67
  TRACK 34 AUDIO
    TITLE "1Q_t_0601-0609_34"
    INDEX 01 00:58:23
  TRACK 35 AUDIO
    TITLE "1Q_t_0601-0609_35"
    INDEX 01 00:58:70
  TRACK 36 AUDIO
    TITLE "1Q_t_0601-0609_36"
    INDEX 01 01:00:12
  TRACK 37 AUDIO
    TITLE "1Q_t_0601-0609_37"
    INDEX 01 01:00:20
  TRACK 38 AUDIO
    TITLE "1Q_t_0601-0609_38"
    INDEX 01 01:03:21
  TRACK 39 AUDIO
    TITLE "1Q_t_0601-0609_39"
    INDEX 01 01:03:27
  TRACK 40 AUDIO
    TITLE "1Q_t_0601-0609_40"
    INDEX 01 01:09:29
  TRACK 41 AUDIO
    TITLE "1Q_t_0601-0609_41"
    INDEX 01 01:09:74
  TRACK 42 AUDIO
    TITLE "1Q_t_0601-0609_42"
    INDEX 01 01:11:14
  TRACK 43 AUDIO
    TITLE "1Q_t_0601-0609_43"
    INDEX 01 01:11:22
  TRACK 44 AUDIO
    TITLE "1Q_t_0601-0609_44"
    INDEX 01 01:15:57
  TRACK 45 AUDIO
    TITLE "1Q_t_0601-0609_45"
    INDEX 01 01:15:65
  TRACK 46 AUDIO
    TITLE "1Q_t_0601-0609_46"
    INDEX 01 01:20:74
  TRACK 47 AUDIO
    TITLE "1Q_t_0601-0609_47"
    INDEX 01 01:21:44
  TRACK 48 AUDIO
    TITLE "1Q_t_0601-0609_48"
    INDEX 01 01:22:51
  TRACK 49 AUDIO
    TITLE "1Q_t_0601-0609_49"
    INDEX 01 01:22:59
  TRACK 50 AUDIO
    TITLE "1Q_t_0601-0609_50"
    INDEX 01 01:24:54
  TRACK 51 AUDIO
    TITLE "1Q_t_0601-0609_51"
    INDEX 01 01:24:62
  TRACK 52 AUDIO
    TITLE "1Q_t_0601-0609_52"
    INDEX 01 01:29:10
  TRACK 53 AUDIO
    TITLE "1Q_t_0601-0609_53"
    INDEX 01 01:29:57
  TRACK 54 AUDIO
    TITLE "1Q_t_0601-0609_54"
    INDEX 01 01:30:68
  TRACK 55 AUDIO
    TITLE "1Q_t_0601-0609_55"
    INDEX 01 01:31:01
  TRACK 56 AUDIO
    TITLE "1Q_t_0601-0609_56"
    INDEX 01 01:33:53
  TRACK 57 AUDIO
    TITLE "1Q_t_0601-0609_57"
    INDEX 01 01:33:59
  TRACK 58 AUDIO
    TITLE "1Q_t_0601-0609_58"
    INDEX 01 01:38:15
